<svg xmlns="http://www.w3.org/2000/svg" width="865.76" height="682.89" viewBox="0 0 865.76 682.89"><path d="M390,128s-45.76,45.76-126.26,66.1c0,0-143.22,38.63-163.56,107.29,0,0-55.08,108.77,35.59,217.26,0,0,127.37,128.91,377.59,108q4.13-.35,8.27-.4c21.63-.23,136.73-5.64,229.21-91.45,44.37-41.17,70.15-98.66,72.29-159.16,3.07-87.13-10.71-226.48-117.88-295.14C705.28,80.57,547.66-37.22,390,128Z" fill="#0055f2"/><path d="M390,128s-45.76,45.76-126.26,66.1c0,0-143.22,38.63-163.56,107.29,0,0-55.08,108.77,35.59,217.26,0,0,127.37,128.91,377.59,108q4.13-.35,8.27-.4c21.63-.23,136.73-5.64,229.21-91.45,44.37-41.17,70.15-98.66,72.29-159.16,3.07-87.13-10.71-226.48-117.88-295.14C705.28,80.57,547.66-37.22,390,128Z" fill="#fff" opacity="0.7"/><path d="M60.48,332a7.46,7.46,0,0,0-3.34,10l63.5,127.34a9.34,9.34,0,0,0,12.49,4.12l87.79-43.85A9.34,9.34,0,0,0,225.1,417L162,290.88A8.67,8.67,0,0,0,150.4,287Z" fill="#b3b3b3"/><path d="M64.71,342.93,124.5,464.22a7.45,7.45,0,0,0,10,3.39l80.6-39.9a7.45,7.45,0,0,0,3.42-9.9L159.6,294.86a7.56,7.56,0,0,0-10.25-3.46l-81.3,41.46A7.55,7.55,0,0,0,64.71,342.93Z" fill="#e6e6e6"/><rect x="74.52" y="333.78" width="27.4" height="29.66" rx="2.42" transform="translate(-140.37 71.02) rotate(-25.27)" fill="#d3d3d3"/><rect x="96.83" y="315.64" width="61.93" height="1.39" transform="translate(-131.03 94.06) rotate(-27.35)" fill="#d3d3d3"/><rect x="100.63" y="321.33" width="61.93" height="1.39" transform="translate(-133.22 96.43) rotate(-27.35)" fill="#d3d3d3"/><rect x="103.47" y="327.97" width="61.93" height="1.39" transform="translate(-135.95 98.48) rotate(-27.35)" fill="#d3d3d3"/><rect x="107.27" y="335.56" width="61.93" height="1.39" transform="translate(-139.01 101.07) rotate(-27.35)" fill="#d3d3d3"/><rect x="86.4" y="368.75" width="61.93" height="1.39" transform="translate(-156.59 95.2) rotate(-27.35)" fill="#d3d3d3"/><rect x="90.2" y="374.44" width="61.93" height="1.39" transform="translate(-158.78 97.58) rotate(-27.35)" fill="#d3d3d3"/><rect x="93.04" y="381.08" width="61.93" height="1.39" transform="translate(-161.51 99.63) rotate(-27.35)" fill="#d3d3d3"/><rect x="96.83" y="388.67" width="61.93" height="1.39" transform="translate(-164.57 102.22) rotate(-27.35)" fill="#d3d3d3"/><rect x="102.52" y="398.15" width="61.93" height="1.39" transform="translate(-168.29 105.89) rotate(-27.35)" fill="#d3d3d3"/><rect x="106.32" y="403.84" width="61.93" height="1.39" transform="translate(-170.48 108.27) rotate(-27.35)" fill="#d3d3d3"/><rect x="109.16" y="410.48" width="61.93" height="1.39" transform="translate(-173.22 110.32) rotate(-27.35)" fill="#d3d3d3"/><rect x="112.96" y="418.07" width="61.93" height="1.39" transform="translate(-176.28 112.91) rotate(-27.35)" fill="#d3d3d3"/><path d="M176.6,364.05l1.48,1.51,2.38-2.35L179,361.67a8.29,8.29,0,0,0,1.26-3.52l2.26,0-.12-3.43h-2.41a9,9,0,0,0-1.3-2.72l1.79-1.77L178,347.75l-1.86,1.83a8.94,8.94,0,0,0-3-1.27v-2.22l-3.41-.12v2.31a8.26,8.26,0,0,0-2.79,1.1l-1.51-1.54L163,350.19l1.48,1.5a8,8,0,0,0-1.25,3h-2.65l.13,3.42,2.5,0a8.79,8.79,0,0,0,1.2,3l-1.63,1.61,2.44,2.5,1.57-1.55a8.91,8.91,0,0,0,3,1.43v2.08l3.41.13v-2A8.11,8.11,0,0,0,176.6,364.05Zm-9.08-3.2a6,6,0,1,1,8.54.5A6.06,6.06,0,0,1,167.52,360.85Z" fill="#d3d3d3"/><path d="M159.33,352.75l1.08.91,1.44-1.71-1.1-.93a5.61,5.61,0,0,0,.62-2.43l1.51-.13-.3-2.28-1.61.15a6.06,6.06,0,0,0-1-1.74L161,343.3l-1.78-1.51-1.13,1.34a5.89,5.89,0,0,0-2.1-.65l-.14-1.48-2.29.13.16,1.54a5.56,5.56,0,0,0-1.8.91l-1.1-.94-1.44,1.72,1.08.91a5.59,5.59,0,0,0-.65,2.05l-1.76.16.3,2.27,1.66-.15a6.07,6.07,0,0,0,1,2l-1,1.18,1.78,1.51,1-1.13a6,6,0,0,0,2.08.77l.13,1.38,2.29-.12-.13-1.33A5.47,5.47,0,0,0,159.33,352.75Zm-6.25-1.56a4,4,0,1,1,5.72-.2A4,4,0,0,1,153.08,351.19Z" fill="#d3d3d3"/><path d="M127.89,334.79s2.85-1,4.75,4.74l-2.82,1.41Z" fill="#2f2e41"/><path d="M127.89,334.79s2.85-1,4.75,4.74l-2.82,1.41Z" opacity="0.2"/><path d="M46.35,382.67a7.46,7.46,0,0,0-3.34,10L106.51,520a9.35,9.35,0,0,0,12.5,4.12l87.78-43.85A9.34,9.34,0,0,0,211,467.74L147.89,341.58a8.67,8.67,0,0,0-11.62-3.87Z" fill="#0055f2"/><path d="M50.58,393.63l59.79,121.29a7.46,7.46,0,0,0,10,3.39l80.6-39.9a7.45,7.45,0,0,0,3.42-9.9L145.47,345.56a7.56,7.56,0,0,0-10.25-3.46l-81.3,41.46A7.55,7.55,0,0,0,50.58,393.63Z" fill="#e6e6e6"/><rect x="60.39" y="384.48" width="27.4" height="29.66" rx="2.42" transform="translate(-163.37 69.84) rotate(-25.27)" fill="#d3d3d3"/><rect x="82.7" y="366.34" width="61.93" height="1.39" transform="translate(-155.9 93.23) rotate(-27.35)" fill="#d3d3d3"/><rect x="86.5" y="372.03" width="61.93" height="1.39" transform="translate(-158.09 95.61) rotate(-27.35)" fill="#d3d3d3"/><rect x="89.34" y="378.67" width="61.93" height="1.39" transform="translate(-160.82 97.66) rotate(-27.35)" fill="#d3d3d3"/><rect x="93.14" y="386.26" width="61.93" height="1.39" transform="translate(-163.88 100.25) rotate(-27.35)" fill="#d3d3d3"/><rect x="72.27" y="419.45" width="61.93" height="1.39" transform="translate(-181.46 94.37) rotate(-27.35)" fill="#d3d3d3"/><rect x="76.07" y="425.14" width="61.93" height="1.39" transform="translate(-183.65 96.75) rotate(-27.35)" fill="#d3d3d3"/><rect x="78.91" y="431.78" width="61.93" height="1.39" transform="translate(-186.38 98.8) rotate(-27.35)" fill="#d3d3d3"/><rect x="82.7" y="439.36" width="61.93" height="1.39" transform="translate(-189.44 101.39) rotate(-27.35)" fill="#d3d3d3"/><rect x="88.39" y="448.85" width="61.93" height="1.39" transform="translate(-193.16 105.06) rotate(-27.35)" fill="#d3d3d3"/><rect x="92.19" y="454.54" width="61.93" height="1.39" transform="translate(-195.35 107.44) rotate(-27.35)" fill="#d3d3d3"/><rect x="95.03" y="461.18" width="61.93" height="1.39" transform="translate(-198.08 109.49) rotate(-27.35)" fill="#d3d3d3"/><rect x="98.83" y="468.77" width="61.93" height="1.39" transform="translate(-201.15 112.08) rotate(-27.35)" fill="#d3d3d3"/><path d="M162.47,414.75l1.48,1.51,2.38-2.35-1.51-1.54a8.29,8.29,0,0,0,1.26-3.52h2.26l-.12-3.42h-2.41a9,9,0,0,0-1.3-2.72l1.79-1.77-2.44-2.49L162,400.28a8.94,8.94,0,0,0-3-1.27v-2.22l-3.41-.12V399a8.26,8.26,0,0,0-2.79,1.1l-1.51-1.54-2.38,2.35,1.48,1.5a8,8,0,0,0-1.25,3h-2.65l.13,3.42,2.5,0a8.79,8.79,0,0,0,1.2,3l-1.63,1.61,2.44,2.5,1.57-1.55a8.91,8.91,0,0,0,3,1.43v2.08l3.41.13v-2A8.11,8.11,0,0,0,162.47,414.75Zm-9.08-3.2a6,6,0,1,1,8.54.5A6.06,6.06,0,0,1,153.39,411.55Z" fill="#d3d3d3"/><path d="M145.2,403.45l1.08.91,1.44-1.71-1.1-.93a5.61,5.61,0,0,0,.62-2.43l1.51-.13-.3-2.28-1.61.15a6.06,6.06,0,0,0-1-1.74l1.08-1.29-1.78-1.51L144,393.83a5.89,5.89,0,0,0-2.1-.65l-.14-1.48-2.29.13.16,1.54a5.56,5.56,0,0,0-1.8.91l-1.1-.94-1.44,1.72,1.08.91a5.59,5.59,0,0,0-.65,2l-1.76.16.3,2.27,1.66-.15a6.07,6.07,0,0,0,1,2l-1,1.18,1.78,1.51.95-1.13a6,6,0,0,0,2.08.77l.13,1.38,2.29-.13-.13-1.32A5.47,5.47,0,0,0,145.2,403.45ZM139,401.89a4,4,0,1,1,5.72-.2A4,4,0,0,1,139,401.89Z" fill="#d3d3d3"/><polygon points="127.45 351.36 132.64 349.96 127.89 334.79 122.87 336.79 127.45 351.36" fill="#2f2e41"/><path d="M416.54,409.71h40.84a0,0,0,0,1,0,0V583.26a0,0,0,0,1,0,0H416.54a3.18,3.18,0,0,1-3.18-3.18V412.89A3.18,3.18,0,0,1,416.54,409.71Z" fill="#aaa"/><path d="M662.79,411a1.32,1.32,0,0,1-.39-.06,1.26,1.26,0,0,1-.8-1.57l20.26-62.6a190.86,190.86,0,0,0,8.23-78.8c-2.15-19.71-6.78-31.94-6.83-32.06a1.24,1.24,0,0,1,.72-1.61,1.26,1.26,0,0,1,1.61.72c.19.51,4.8,12.65,7,32.68a189.91,189.91,0,0,1,.48,35.7,194.67,194.67,0,0,1-8.82,44.14L664,410.09A1.25,1.25,0,0,1,662.79,411Z" fill="#2f2e41"/><polygon points="287.6 400.25 275.96 492.22 305.24 589.51 358.75 583.26 363.46 537.74 365.7 467.83 358.75 415.69 323.26 386 293.05 381.26 287.6 400.25" fill="#0055f2"/><path d="M420.32,356.86,411.49,361a5.81,5.81,0,0,0-1.59,1.11,5.69,5.69,0,0,0-1.68,3.38l-.42,3.35a5.73,5.73,0,0,1-3.37,4.53c-5.54,2.46-17.37,8.84-22.37,20.27L367.84,415.4a9.73,9.73,0,0,0,.11,9.08A123.6,123.6,0,0,1,376,442.21l1.3,3.53c-.46-.32-15.33-10.85-27.48-14.87,0,0-19.93-5-27.52-29.7l-15.72-41.25,1-3.06a261.28,261.28,0,0,1,33.73-13.54l17.07-5.69s30.13-12.05,34.62-22.21a1.56,1.56,0,0,1,2.1-.8C400.67,317.3,419,328.2,420.32,356.86Z" fill="#2f2e41"/><path d="M250.26,370.22,236,358.5a22.59,22.59,0,0,1,16.6-9S251.21,362.63,250.26,370.22Z" fill="#2f2e41"/><path d="M250.26,370.22,236,358.5a22.59,22.59,0,0,1,16.6-9S251.21,362.63,250.26,370.22Z" opacity="0.3"/><path d="M269.2,344.53c10.44,3.1,13.07-3.88,13.07-3.88,14,14.53,25.28,16.21,25.28,16.21C301.33,374.2,310,387,310,387c.94,9.48-3.76,13.28-3.76,13.28-9.45,7.58-19,0-19,0-9-6.17-37-30-37-30,1-5.69,1.4-20.73,1.4-20.73s5.07,2.48,11.31-1.37Z" fill="#f9b499"/><path d="M310,387l12.32,14.22.95-15.17,8.54,19-5.69-30.35-19.52-14.7A34.51,34.51,0,0,0,310,387Z" fill="#2f2e41"/><path d="M310,387l12.32,14.22.95-15.17,8.54,19-5.69-30.35-19.52-14.7A34.51,34.51,0,0,0,310,387Z" opacity="0.2"/><path d="M287.22,400.23S309,468.51,310,536.79v42.77H298.61s-27.51,11.29-36,44.49l-82.51-.95s-11.38-5.69-11.38-41.73a145.81,145.81,0,0,1,1.89-19.92,231.62,231.62,0,0,0-1.5-25.37,7.86,7.86,0,0,1,1.05-5.1l6.14-10.31s-17-66.75,6.66-89.8l51.21-51.52Z" fill="#2f2e41"/><path d="M192.39,447.64s37,25.61,50.26,71.13a167.75,167.75,0,0,1,5.69,54.06s-33.19,16.12-46.47,36c0,0,40.78-26.55,53.11-28.45l41,.44-33.36-2.34S264.46,482.74,192.39,447.64Z" opacity="0.2"/><path d="M409.9,362.06a5.69,5.69,0,0,0-1.68,3.38l-.42,3.35a5.73,5.73,0,0,1-3.37,4.53s3.24-17.67-10-34.74C394.39,338.58,404.55,345.72,409.9,362.06Z" opacity="0.2"/><polygon points="367.15 417.16 346.97 391.69 370.52 411.29 367.15 417.16" opacity="0.2"/><path d="M355.15,432.94s7,26.09,5.1,80.14l-2.39,61.83h5.6s-1.31-23.89,6.27-38.12c0,0,31.28-55,7.58-91C377.31,445.74,365.22,437.21,355.15,432.94Z" fill="#2f2e41"/><path d="M355.15,432.94s7,26.09,5.1,80.14l-2.39,61.83h5.6s-1.31-23.89,6.27-38.12c0,0,31.28-55,7.58-91C377.31,445.74,365.22,437.21,355.15,432.94Z" opacity="0.2"/><rect x="667.53" y="271.24" width="55.95" height="23.71" fill="#a8a8a8"/><line x1="673.73" y1="283.1" x2="683.23" y2="283.1" fill="none" stroke="#c1c1c1" stroke-miterlimit="10" stroke-width="4"/><line x1="710.15" y1="283.1" x2="719.65" y2="283.1" fill="none" stroke="#c1c1c1" stroke-miterlimit="10" stroke-width="4"/><polygon points="667.53 313.92 682.36 313.92 723.48 294.95 667.53 294.95 667.53 313.92" fill="#c1c1c1"/><rect x="667.53" y="347.12" width="81.56" height="23.71" fill="#a8a8a8"/><line x1="673.73" y1="358.97" x2="683.23" y2="358.97" fill="none" stroke="#c1c1c1" stroke-miterlimit="10" stroke-width="4"/><line x1="699.33" y1="358.97" x2="723.48" y2="358.97" fill="none" stroke="#c1c1c1" stroke-miterlimit="10" stroke-width="4" stroke-dasharray="16.1 16.1"/><line x1="731.53" y1="358.97" x2="741.03" y2="358.97" fill="none" stroke="#c1c1c1" stroke-miterlimit="10" stroke-width="4"/><polygon points="667.53 389.79 707.98 389.79 748.62 370.82 667.53 370.82 667.53 389.79" fill="#c1c1c1"/><polygon points="588.81 226.67 544.24 255.12 486.39 251.33 588.81 180.2 588.81 226.67" fill="#8d8d8d"/><polygon points="588.81 612.54 483.43 580.06 588.81 580.06 588.81 612.54" fill="#8a8a8a"/><polygon points="483.43 580.06 483.43 600.75 588.81 643.01 588.81 612.54 483.43 580.06" fill="#aaa"/><polygon points="486.39 251.33 487.28 580.06 588.81 580.06 588.81 528.04 511.86 521.27 511.04 347.98 516 310.6 515.79 273.14 544.24 255.12 486.39 251.33" fill="#c1c1c1"/><polygon points="515.84 282.58 588.81 239.95 588.81 247.53 515.84 290.19 515.84 282.58" fill="#cbcbcb"/><polygon points="511.12 364.19 511.04 347.98 588.81 311.08 588.81 501.7 511.75 497.06 511.12 364.19" fill="#e6e6e6"/><polygon points="565.59 380.31 565.59 341.9 511.12 364.19 511.27 396.57 565.59 380.31" fill="#fff"/><line x1="511.04" y1="404.02" x2="588.81" y2="382.09" fill="none" stroke="#c1c1c1" stroke-miterlimit="10" stroke-width="4" stroke-dasharray="19"/><polygon points="530.01 411.61 529.54 476.94 588.81 475.15 588.98 396.25 530.01 411.61" fill="#c1c1c1"/><path d="M662.82,584.65a1.26,1.26,0,0,1-1.05-.56,1.25,1.25,0,0,1,.36-1.73c16.71-11.06,29.23-36.52,37.22-75.68,6.43-31.51,9.93-71.85,10.39-119.91.79-81.88-7.63-158.75-7.72-159.52a1.25,1.25,0,0,1,1.11-1.37,1.23,1.23,0,0,1,1.37,1.1c.09.77,8.52,77.76,7.73,159.8-.46,48.21-4,88.72-10.43,120.39-8.13,39.84-21,65.83-38.3,77.27A1.23,1.23,0,0,1,662.82,584.65Z" fill="#2f2e41"/><polygon points="456.37 355.95 481.8 341.9 481.8 349.96 486.66 349.96 487.28 580.06 483.43 580.06 483.43 593.75 456.37 583.12 456.37 355.95" fill="#999"/><path d="M415.09,429.63H456a0,0,0,0,1,0,0v7.59a0,0,0,0,1,0,0H415.09a3.63,3.63,0,0,1-3.63-3.63v-.33A3.63,3.63,0,0,1,415.09,429.63Z" fill="#cdcdcd"/><path d="M415.09,459H456a0,0,0,0,1,0,0v7.59a0,0,0,0,1,0,0H415.09a3.63,3.63,0,0,1-3.63-3.63v-.33a3.63,3.63,0,0,1,3.63-3.63Z" fill="#cdcdcd"/><path d="M415.09,486.53H456a0,0,0,0,1,0,0v7.59a0,0,0,0,1,0,0H415.09a3.63,3.63,0,0,1-3.63-3.63v-.33A3.63,3.63,0,0,1,415.09,486.53Z" fill="#cdcdcd"/><path d="M415.09,515.93H456a0,0,0,0,1,0,0v7.59a0,0,0,0,1,0,0H415.09a3.63,3.63,0,0,1-3.63-3.63v-.33A3.63,3.63,0,0,1,415.09,515.93Z" fill="#cdcdcd"/><path d="M415.09,552H456a0,0,0,0,1,0,0v7.59a0,0,0,0,1,0,0H415.09a3.63,3.63,0,0,1-3.63-3.63v-.33a3.63,3.63,0,0,1,3.63-3.63Z" fill="#cdcdcd"/><circle cx="380.64" cy="271.72" r="24.18" fill="#0055f2"/><path d="M380.64,275.43l-8.53-9.95a3.7,3.7,0,0,0-5.18-.44h0a3.71,3.71,0,0,0-.43,5.26l12.14,14.05a3.48,3.48,0,0,0,5.76-.72l22.54-45.24a3.32,3.32,0,0,0-1.63-4.6h0a3.31,3.31,0,0,0-4.26,1.55Z" fill="#fff"/><path d="M307.55,356.86A39.66,39.66,0,0,0,305.89,376S282.78,356.59,285.71,344l15.13,1.48Z" fill="#f7a48b"/><ellipse cx="302.02" cy="306.11" rx="35.13" ry="53.35" transform="translate(-91.66 133.09) rotate(-21.66)" fill="#f9b499"/><path d="M279.39,344c-2.81,1.92-6.5,2-10.19.57A22.87,22.87,0,0,1,259,336.07c-5.64-8.22-5.64-18,0-21.84,4.25-2.91,10.51-1.59,15.73,2.78h0a25.31,25.31,0,0,1,4.6,5.11C285,330.34,285,340.11,279.39,344Z" fill="#f9b499"/><path d="M326.94,259c-13.29,10-35.31,7.41-42.81,6.12a5.53,5.53,0,0,0-4.95,1.69,24.33,24.33,0,0,0-4.43,6.55c-5.83,16.33,11.53,25.21,11.53,25.21v23.91c-4.59-3.68-11.11-5.34-11.51-5.44h0c-5.22-4.37-11.48-5.69-15.73-2.78-5.62,3.86-5.62,13.62,0,21.84a22.87,22.87,0,0,0,10.16,8.46l-4.4,2.59c-13.14,8.06-15.51,0-15.51,0-1.9-3.8-8.54-9.49-8.54-9.49C219.89,325.3,212.3,313,212.3,313a14.81,14.81,0,0,1-9.07-6.86c-4.34-17.3,10-24.43,10-24.43,6.64-4.75,9.48-22.76,9.48-22.76,4.75-17.08,13.28-5.7,13.28-5.7,18-24.65,32.25-16.12,32.25-16.12a15.92,15.92,0,0,0,19-.95c13.28-13.27,31.3-9.48,31.3-9.48,8.47,1.21,12.64,5.5,14.65,10C336.67,244.6,333.83,253.77,326.94,259Z" fill="#2f2e41"/><path d="M236,358.5l0,.06,0,0s-2.38,3.67-2.88,10.58a26.13,26.13,0,0,0,7.05,19.49l39.34,42.63,8.08-31Z" fill="#2f2e41"/><path d="M236,358.5l0,.06,0,0s-2.38,3.67-2.88,10.58a26.13,26.13,0,0,0,7.05,19.49l39.34,42.63,8.08-31Z" opacity="0.2"/><polygon points="481.8 329.1 588.81 271.24 588.81 294.95 481.8 349.96 481.8 329.1" fill="#aaa"/><polygon points="481.8 349.96 511.04 347.98 588.81 310.53 588.81 294.95 481.8 349.96" fill="#8d8d8d"/><polygon points="483.43 496.96 483.43 518.77 588.81 528.04 588.81 503.93 483.43 496.96" fill="#aaa"/><polygon points="483.43 496.96 510.1 496.96 588.81 501.7 588.81 503.93 483.43 496.96" fill="#8d8d8d"/><path d="M504.68,506.38a1.33,1.33,0,0,1-.57-.14,1.24,1.24,0,0,1-.53-1.68L513.13,486a80.56,80.56,0,0,0,9-37.18c-.14-22-7.56-44.66-13.77-59.82a230.22,230.22,0,0,0-13.61-28s-.05-.08-.07-.13c-7.6-16.95-13-32.51-16.15-46.26-2.51-11.05-3.53-21-3-29.48.85-14.75,5.93-20.24,6.15-20.47a1.25,1.25,0,0,1,1.81,1.72c-.1.11-4.78,5.36-5.49,19.3-.67,13,2.08,36.45,19,74.11A233,233,0,0,1,510.7,388c6.3,15.38,13.83,38.4,14,60.79a83,83,0,0,1-9.33,38.34l-9.55,18.54A1.24,1.24,0,0,1,504.68,506.38Z" fill="#2f2e41"/><rect x="667.53" y="195.37" width="55.95" height="23.71" fill="#a8a8a8"/><line x1="673.73" y1="207.23" x2="683.23" y2="207.23" fill="none" stroke="#c1c1c1" stroke-miterlimit="10" stroke-width="4"/><line x1="710.15" y1="207.23" x2="719.65" y2="207.23" fill="none" stroke="#c1c1c1" stroke-miterlimit="10" stroke-width="4"/><polygon points="667.53 239.95 682.36 239.95 723.48 219.08 667.53 219.08 667.53 239.95" fill="#c1c1c1"/><path d="M561.93,299.11a1.19,1.19,0,0,1-.37-.06,46.31,46.31,0,0,1-18.25-10.21A26.69,26.69,0,0,1,535.5,264a24.64,24.64,0,0,1,12-16.42,29.44,29.44,0,0,1,9.27-3.56,1.25,1.25,0,1,1,.4,2.46h0a27.45,27.45,0,0,0-8.48,3.29,21.94,21.94,0,0,0-10.78,14.75A24.16,24.16,0,0,0,545,287a43.7,43.7,0,0,0,17.28,9.65,1.24,1.24,0,0,1,.82,1.56A1.26,1.26,0,0,1,561.93,299.11Z" fill="#2f2e41"/><path d="M532.49,310.43a1.25,1.25,0,0,1-.46-.09,25.41,25.41,0,0,1-14.77-15.07,27.82,27.82,0,0,1-1.77-9.8c-.39-10.1,3.85-18.8,12.27-25.17a41.9,41.9,0,0,1,12.92-6.59,1.24,1.24,0,1,1,.65,2.4,40.25,40.25,0,0,0-12.13,6.23c-7.82,5.94-11.59,13.71-11.22,23.08v.1a25.88,25.88,0,0,0,1.65,9A22.65,22.65,0,0,0,533,308a1.25,1.25,0,0,1-.47,2.41Z" fill="#2f2e41"/><path d="M588.36,429.13a1.19,1.19,0,0,1-.45-.08A39.64,39.64,0,0,1,570.27,415a69.51,69.51,0,0,1-9.6-19.43,105.58,105.58,0,0,1-4.9-24.65v0c-1.14-47.45,8.76-99.46,13.07-119.63A123.64,123.64,0,0,0,571.67,225c-.06-16.28-3.48-24.19-6.34-28-3-3.93-5.88-4.2-6-4.21a.92.92,0,0,1-.33-.06,15.58,15.58,0,0,0-12.46.75c-12.62,6.27-19.65,27.54-19.72,27.76a1.26,1.26,0,0,1-1.57.8,1.24,1.24,0,0,1-.8-1.57c.29-.92,7.42-22.48,21-29.22a18,18,0,0,1,14.26-.93c1.83.22,14.37,2.9,14.48,34.63a126.09,126.09,0,0,1-2.88,26.78c-4.29,20.07-14.15,71.84-13,119a104.94,104.94,0,0,0,4.8,24c3.77,11.46,11.3,26.3,25.75,31.92a1.25,1.25,0,0,1,.72,1.61A1.26,1.26,0,0,1,588.36,429.13Z" fill="#2f2e41"/><path d="M588.81,597.55h-.08c-13.26-.84-23.38-6-30.08-15.46-7.65-10.74-10.83-26.83-9.45-47.81a213.44,213.44,0,0,1,7.19-40.83c.81-2.93,1.8-5.9,3-9.08a778.33,778.33,0,0,0,27.45-88.09,1.25,1.25,0,1,1,2.43.57,781.82,781.82,0,0,1-27.55,88.4c-1.18,3.11-2.14,6-2.93,8.87a210.62,210.62,0,0,0-7.11,40.32c-1.34,20.4,1.68,35.94,9,46.21,6.24,8.77,15.73,13.62,28.21,14.41a1.25,1.25,0,0,1-.08,2.49Z" fill="#2f2e41"/><path d="M588,569.5a57.37,57.37,0,0,1-10-1c-28.34-5.17-47.85-31.9-44.43-60.86,2-17,8.44-35.14,19.11-54,.9-1.85,33.07-68.23,34.91-96.51a1.24,1.24,0,0,1,1.32-1.17,1.26,1.26,0,0,1,1.17,1.33c-.8,12.21-7,32.34-18.33,59.82-8.44,20.41-16.76,37.49-16.84,37.66a.25.25,0,0,1,0,.07C544.33,473.44,538,491.29,536,508c-3.27,27.65,15.35,53.18,42.4,58.11a51.72,51.72,0,0,0,10.33.94,1.25,1.25,0,1,1,.11,2.49Z" fill="#2f2e41"/><path d="M588.81,321.28A1.26,1.26,0,0,1,588,321c-8.93-7.94-13.45-23.75-13.45-47a214.29,214.29,0,0,1,2.62-32.36c4.29-25.71,2.67-39.49.56-46.52-2.24-7.49-5.47-9-5.51-9a1.35,1.35,0,0,1-.26-.15,5.29,5.29,0,0,0-4.91-1c-6.94,2.05-13.88,17.11-16,22.74a1.25,1.25,0,1,1-2.34-.87c.32-.87,8-21.45,17.6-24.26a7.72,7.72,0,0,1,7,1.33c.87.42,4.22,2.48,6.59,9.95,3.37,10.57,3.26,26.8-.31,48.24-.11.6-10.08,59.18,10,77.05a1.25,1.25,0,0,1,.1,1.76A1.21,1.21,0,0,1,588.81,321.28Z" fill="#2f2e41"/><rect x="588.81" y="180.2" width="78.72" height="462.81" fill="#939393"/><path d="M588.81,198.22h46.64a3.63,3.63,0,0,1,3.63,3.63v.33a3.63,3.63,0,0,1-3.63,3.63H588.81a0,0,0,0,1,0,0v-7.59A0,0,0,0,1,588.81,198.22Z" fill="#747474"/><path d="M588.81,219.08h46.64a3.63,3.63,0,0,1,3.63,3.63V223a3.63,3.63,0,0,1-3.63,3.63H588.81a0,0,0,0,1,0,0v-7.59A0,0,0,0,1,588.81,219.08Z" fill="#747474"/><path d="M588.81,239.95h46.64a3.63,3.63,0,0,1,3.63,3.63v.33a3.63,3.63,0,0,1-3.63,3.63H588.81a0,0,0,0,1,0,0v-7.59a0,0,0,0,1,0,0Z" fill="#747474"/><path d="M588.81,260.81h46.64a3.63,3.63,0,0,1,3.63,3.63v.33a3.63,3.63,0,0,1-3.63,3.63H588.81a0,0,0,0,1,0,0v-7.59A0,0,0,0,1,588.81,260.81Z" fill="#747474"/><path d="M588.81,280.73h46.64a3.63,3.63,0,0,1,3.63,3.63v.33a3.63,3.63,0,0,1-3.63,3.63H588.81a0,0,0,0,1,0,0v-7.59A0,0,0,0,1,588.81,280.73Z" fill="#747474"/><path d="M588.81,301.59h46.64a3.63,3.63,0,0,1,3.63,3.63v.33a3.63,3.63,0,0,1-3.63,3.63H588.81a0,0,0,0,1,0,0v-7.59a0,0,0,0,1,0,0Z" fill="#747474"/><path d="M588.81,322.46h46.64a3.63,3.63,0,0,1,3.63,3.63v.33a3.63,3.63,0,0,1-3.63,3.63H588.81a0,0,0,0,1,0,0v-7.59A0,0,0,0,1,588.81,322.46Z" fill="#747474"/><path d="M588.81,343.32h46.64a3.63,3.63,0,0,1,3.63,3.63v.33a3.63,3.63,0,0,1-3.63,3.63H588.81a0,0,0,0,1,0,0v-7.59A0,0,0,0,1,588.81,343.32Z" fill="#747474"/><path d="M588.81,364.19h46.64a3.63,3.63,0,0,1,3.63,3.63v.33a3.63,3.63,0,0,1-3.63,3.63H588.81a0,0,0,0,1,0,0v-7.59a0,0,0,0,1,0,0Z" fill="#747474"/><path d="M588.81,385.05h46.64a3.63,3.63,0,0,1,3.63,3.63V389a3.63,3.63,0,0,1-3.63,3.63H588.81a0,0,0,0,1,0,0v-7.59A0,0,0,0,1,588.81,385.05Z" fill="#747474"/><path d="M588.81,405.92h46.64a3.63,3.63,0,0,1,3.63,3.63v.33a3.63,3.63,0,0,1-3.63,3.63H588.81a0,0,0,0,1,0,0v-7.59a0,0,0,0,1,0,0Z" fill="#747474"/><path d="M588.81,425.83h46.64a3.63,3.63,0,0,1,3.63,3.63v.33a3.63,3.63,0,0,1-3.63,3.63H588.81a0,0,0,0,1,0,0v-7.59a0,0,0,0,1,0,0Z" fill="#747474"/><path d="M588.81,446.7h46.64a3.63,3.63,0,0,1,3.63,3.63v.33a3.63,3.63,0,0,1-3.63,3.63H588.81a0,0,0,0,1,0,0V446.7A0,0,0,0,1,588.81,446.7Z" fill="#747474"/><path d="M588.81,467.56h46.64a3.63,3.63,0,0,1,3.63,3.63v.33a3.63,3.63,0,0,1-3.63,3.63H588.81a0,0,0,0,1,0,0v-7.59A0,0,0,0,1,588.81,467.56Z" fill="#747474"/><path d="M588.81,488.43h46.64a3.63,3.63,0,0,1,3.63,3.63v.33a3.63,3.63,0,0,1-3.63,3.63H588.81a0,0,0,0,1,0,0v-7.59A0,0,0,0,1,588.81,488.43Z" fill="#747474"/><path d="M588.81,509.29h46.64a3.63,3.63,0,0,1,3.63,3.63v.33a3.63,3.63,0,0,1-3.63,3.63H588.81a0,0,0,0,1,0,0v-7.59A0,0,0,0,1,588.81,509.29Z" fill="#747474"/><path d="M588.81,530.15h46.64a3.63,3.63,0,0,1,3.63,3.63v.33a3.63,3.63,0,0,1-3.63,3.63H588.81a0,0,0,0,1,0,0v-7.59A0,0,0,0,1,588.81,530.15Z" fill="#747474"/><path d="M588.81,551h46.64a3.63,3.63,0,0,1,3.63,3.63V555a3.63,3.63,0,0,1-3.63,3.63H588.81a0,0,0,0,1,0,0V551a0,0,0,0,1,0,0Z" fill="#747474"/><path d="M588.81,570h46.64a3.63,3.63,0,0,1,3.63,3.63v.33a3.63,3.63,0,0,1-3.63,3.63H588.81a0,0,0,0,1,0,0V570A0,0,0,0,1,588.81,570Z" fill="#747474"/><path d="M548.61,233.11H534.75a.28.28,0,0,1,0-.55h13.86a.28.28,0,0,1,0,.55Z" fill="#fff"/><path d="M514.22,229.52h20.54a0,0,0,0,1,0,0v6.64a0,0,0,0,1,0,0H514.22A3.17,3.17,0,0,1,511,233v-.29A3.17,3.17,0,0,1,514.22,229.52Z" fill="#0055f2"/><path d="M492.07,216.24l14.75-2.46a7.75,7.75,0,0,1,4.48.59l21.87,9.93a2.06,2.06,0,0,1,.76,3.22c-.54.59-1.45.86-3,.1L507.2,216.24Z" fill="#f7a48b"/><path d="M523.37,243.74s-11.38,2.85-13.27,8.54c0,0-1,5.69-12.33,8.53l-15.18,4.74L450.31,312.4l0,0-16.07,23.31s-5.81,9.31-14.76,13.2c0,0-2.54-20.35-19.5-31.47,0,0,3-11.13,19.09-24.4l47.42-42.68L476,223.82s0-7.58,10.44-7.58H507.2L531,227.62s.95,8.53-15.17,2.84c0,0-10.44-2.84-14.23,0,0,0-12.33,3.8-9.48,5.69,0,0,3.79,6.64,10.43,3.8,0,0,19.91-7.59,26.55-4.74C529.06,235.21,533.81,239,523.37,243.74Z" fill="#f9b499"/><path d="M450.29,312.42l-16.07,23.31s-5.81,9.31-14.76,13.2c0,0-2.54-20.35-19.5-31.47a32,32,0,0,1,20.36,21.12s2.52,3.79,10.11-4.74Z" fill="#f7a48b"/><polygon points="370.67 612.54 365.7 612.54 461.73 513.08 538.55 498.86 536.79 501.7 462.68 515.93 370.67 612.54" fill="#0055f2"/><polygon points="370.67 612.54 365.7 612.54 461.73 513.08 538.55 498.86 536.79 501.7 462.68 515.93 370.67 612.54" opacity="0.2"/><polygon points="444.66 603.18 536.79 501.7 462.68 515.93 370.67 612.54 444.66 603.18" fill="#0055f2"/><path d="M262.57,624.05l113.8-19.92L416,605.89a10.78,10.78,0,0,0,5.7-1.33l24.84-13.71s4.75-2.84,3.8-9.48c0,0,7.58-2.85,2.84-11.38l2.93-1.68a4.52,4.52,0,0,0,1.8-5.94h0a4.5,4.5,0,0,0-5.77-2.14l-18.87,7.86L408.62,570s-4.74,0-1.9-4.75l6.64-6.63h4.81l8.47-8.54s-20.87-7.59-35.09,5.69L374.41,572a7.25,7.25,0,0,1-4.35,2l-55.57,5.13q-4.5.42-9,.42h-6.85S272.05,589.9,262.57,624.05Z" fill="#f9b499"/><line x1="453.19" y1="569.99" x2="434.7" y2="577.43" fill="none" stroke="#f7a48b" stroke-miterlimit="10"/><line x1="450.07" y1="581.37" x2="437.98" y2="585.98" fill="none" stroke="#f7a48b" stroke-miterlimit="10"/></svg>